<?xml version="1.0" encoding="UTF-8"?>
<svg width="28px" height="32px" viewBox="0 0 28 32" version="1.1" xmlns="http://www.w3.org/2000/svg" xmlns:xlink="http://www.w3.org/1999/xlink">
    <!-- Generator: Sketch 48.2 (47327) - http://www.bohemiancoding.com/sketch -->
    <title>Page 1</title>
    <desc>Created with Sketch.</desc>
    <defs></defs>
    <g id="Desktop-HD-Copy-2" stroke="none" stroke-width="1" fill="none" fill-rule="evenodd" transform="translate(-713.000000, -166.000000)">
        <g id="Design" transform="translate(-252.000000, -53.000000)" fill="#6F0E0E">
            <g id="Play" transform="translate(923.000000, 184.000000)">
                <g id="Icon-PLAY" transform="translate(7.000000, 7.000000)">
                    <path d="M62.1835086,42.5956488 L37.258496,28.2171713 C36.7568244,27.9276096 36.2261281,27.9276096 35.7226482,28.2171713 C35.2209766,28.506733 35,29.0423991 35,29.6215225 L35,58.3784775 C35,58.9576009 35.2209581,59.493267 35.7244565,59.7828287 C35.9762057,59.9276096 36.2116622,60 36.4923572,60 C36.7730522,60 37.0302864,59.9276096 37.2820032,59.7828287 L62.1940335,45.4043512 C62.6957051,45.1147895 63,44.5791235 63,44 C63,43.4208765 62.6848603,42.8852105 62.183184,42.5956488 L62.1835086,42.5956488 Z" id="Page-1"></path>
                </g>
            </g>
        </g>
    </g>
</svg>