<?xml version="1.0" encoding="UTF-8"?>
<svg width="320px" height="187px" viewBox="0 0 320 187" version="1.1" xmlns="http://www.w3.org/2000/svg" xmlns:xlink="http://www.w3.org/1999/xlink">
    <!-- Generator: Sketch 48.2 (47327) - http://www.bohemiancoding.com/sketch -->
    <title>07a. HH Close</title>
    <desc>Created with Sketch.</desc>
    <defs>
        <path d="M153.175573,111.005491 C119.2776,111.58434 127.997293,121.383484 111,126.871931 C117.402048,128.46665 135.814449,130.085443 153.824461,129.996494 C171.834473,130.085443 189.597952,128.46665 196,126.871931 C179.002707,121.383484 187.7224,111.58434 153.824461,111.005491 C153.824461,111.005491 153.607716,110.998613 153.5,111.000253 C153.392284,110.998613 153.175573,111.005491 153.175573,111.005491 Z" id="path-1"></path>
        <path d="M50.4049346,104.325648 C-38.6264797,87.725003 21.0990116,58 149.960959,58 C283.695139,58 349.809643,87.725003 249.516983,104.325648 C194.663725,114.558117 105.246592,114.558117 50.4049346,104.325648 Z" id="path-2"></path>
        <path d="M44.7445172,89.8992947 C-49.1989751,72.3763921 13.8217157,41 149.793288,41 C290.905906,41 360.668106,72.3763921 254.842058,89.8992947 C196.962413,100.700235 102.611921,100.700235 44.7445172,89.8992947 Z" id="path-3"></path>
        <path d="M153.175573,25.0086578 C119.2776,25.9213874 127.997293,41.3726661 111,50.026843 C117.402048,52.541395 135.814449,55.0939053 153.824461,54.9536511 C171.834473,55.0939053 189.597952,52.541395 196,50.026843 C179.002707,41.3726661 187.7224,25.9213874 153.824461,25.0086587 C153.824461,25.0086587 153.607716,24.997813 153.5,25.0003983 C153.392284,24.997813 153.175573,25.0086578 153.175573,25.0086578 Z" id="path-4"></path>
    </defs>
    <g id="Ikony" stroke="none" stroke-width="1" fill="none" fill-rule="evenodd">
        <g id="07a.-HH-Close" transform="translate(7.000000, 0.000000)">
            <path d="M149,127.498124 C149,126.670733 149.668316,126 150.504739,126 L155.495261,126 C156.326305,126 157,126.673828 157,127.498124 L157,184.501876 C157,185.329267 156.385537,186.267982 155.606506,186.546814 C155.606506,186.546814 155,187 153,187 C151,187 150.393494,186.546814 150.393494,186.546814 C149.623888,186.244817 149,185.326172 149,184.501876 L149,127.498124 Z" id="Sztyca-Copy" fill="#000000"></path>
            <g id="Combined-Shape-Copy-3" stroke-linecap="round" stroke-linejoin="round" transform="translate(153.500000, 120.500000) scale(1, -1) translate(-153.500000, -120.500000) ">
                <use fill="#FFFFFF" fill-rule="evenodd" xlink:href="#path-1"></use>
                <path stroke="#000000" stroke-width="4" d="M153.127195,109.006026 C153.143637,109.005524 153.158709,109.005132 153.228526,109.003316 C153.278636,109.002164 153.278636,109.002164 153.335039,109.001154 C153.424764,108.999869 153.472055,108.999596 153.469561,109.000484 C153.52795,108.999596 153.57525,108.999869 153.664988,109.001154 C153.721385,109.002164 153.721385,109.002164 153.771491,109.003316 C153.86054,109.005632 153.86054,109.005632 153.858608,109.005783 C172.093603,109.317168 178.492587,111.614623 185.457505,118.101462 C185.406976,118.054402 185.946445,118.557317 186.091216,118.691774 C186.329172,118.912776 186.528682,119.096526 186.721244,119.271605 C189.703068,121.982698 192.254302,123.56076 196.614558,124.968692 L203.277659,127.120215 L196.483418,128.812628 C189.26027,130.61188 170.709612,132.079912 153.834338,131.99647 C136.84061,132.080399 117.67553,130.595888 110.516582,128.812628 L103.722341,127.120215 L110.385442,124.968692 C114.745698,123.56076 117.296931,121.982699 120.278757,119.271604 C120.471319,119.096526 120.670829,118.912777 120.908784,118.691776 C121.053555,118.557319 121.593022,118.054406 121.542493,118.101466 C128.505606,111.616311 134.903079,109.318363 153.127195,109.006026 Z"></path>
            </g>
            <g id="Ride-Bow">
                <use fill="#D1D1D1" fill-rule="evenodd" xlink:href="#path-2"></use>
                <path stroke="#000000" stroke-width="4" d="M50.0382187,106.29174 C28.1814162,102.216349 14.3322437,97.2042499 8.83517846,91.4676066 C2.76144548,85.1291628 6.46945653,78.452496 17.6112008,73.1327519 C39.3248476,62.7653407 88.9179423,56 149.960959,56 C213.487487,56 265.869476,62.8079266 288.333418,73.1199445 C299.98655,78.4692862 303.539034,85.2988964 296.400419,91.584878 C289.952438,97.262715 274.329007,102.245924 249.883742,106.291732 C194.788096,116.569418 105.122337,116.569425 50.0382187,106.29174 Z"></path>
            </g>
            <g id="Ride-Bow-Copy-2">
                <use fill="#FFFFFF" fill-rule="evenodd" xlink:href="#path-3"></use>
                <path stroke="#000000" stroke-width="7" d="M44.1025392,93.3399145 C20.7640977,88.9866733 5.94489052,83.6215599 -0.122544654,77.2873892 C-3.69533219,73.5575354 -4.51128801,69.1675663 -2.21309094,65.0279163 C-0.29543823,61.5737256 3.67783219,58.521374 9.54227059,55.7203189 C32.6888557,44.6647232 85.1905461,37.5 149.793288,37.5 C217.01064,37.5 272.44736,44.7075569 296.380279,55.6978941 C302.514037,58.5146028 306.587107,61.5827089 308.422283,65.1120961 C310.655059,69.4061407 309.379712,73.8381495 305.231014,77.4926559 C298.167704,83.7145857 281.499551,89.0329463 255.484111,93.3399005 C197.180141,104.220024 102.394396,104.220037 44.1025392,93.3399145 Z"></path>
            </g>
            <g id="Combined-Shape-Copy-2" stroke-linecap="round" stroke-linejoin="round">
                <use fill="#FFFFFF" fill-rule="evenodd" xlink:href="#path-4"></use>
                <path stroke="#000000" stroke-width="4" d="M153.100053,23.0099685 C153.116236,23.0092217 153.137009,23.0083701 153.201008,23.0057462 C153.254701,23.0037994 153.254701,23.0037994 153.316355,23.0020579 C153.400955,22.9998959 153.474989,22.9992221 153.452011,23.0009742 C153.525018,22.9992219 153.59906,22.9998961 153.683674,23.0020586 C153.74532,23.0038001 153.74532,23.0038001 153.799007,23.0057466 C153.893771,23.0096316 153.893771,23.0096316 153.878293,23.0093833 C164.038065,23.2829432 171.083713,24.841942 176.160844,27.7162326 C180.160167,29.9803493 182.326045,32.3549248 185.747546,37.3796256 C185.696649,37.30488 186.236608,38.0985974 186.381834,38.3112749 C186.621118,38.6616959 186.822002,38.9534271 187.016172,39.2317962 C190.024011,43.5439416 192.589379,46.0460125 196.90745,48.2445595 L200.870759,50.2624796 L196.731169,51.8883992 C189.418412,54.7606536 170.784829,57.0857918 153.840036,56.9535905 C136.765455,57.0865599 117.518169,54.7357441 110.268831,51.8883992 L106.129241,50.2624796 L110.09255,48.2445595 C114.41062,46.0460126 116.975988,43.5439425 119.983829,39.2317954 C120.177999,38.9534273 120.378882,38.6616971 120.618165,38.3112772 C120.763391,38.0986004 121.303349,37.3048859 121.252452,37.3796311 C124.673957,32.354928 126.839837,29.9803519 130.839164,27.7162343 C135.912687,24.843988 142.951928,23.2851624 153.100053,23.0099685 Z"></path>
            </g>
            <path d="M149,1.50826408 C149,0.675272828 149.668316,0 150.504739,0 L155.495261,0 C156.326305,0 157,0.66865487 157,1.50826408 L157,28.4917359 C157,29.3247272 156.385537,30.2679816 155.606506,30.546814 C155.606506,30.546814 155,31 153,31 C151,31 150.393494,30.546814 150.393494,30.546814 C149.623888,30.244817 149,29.3313451 149,28.4917359 L149,1.50826408 Z" id="Sztyca-Copy-2" fill="#000000" transform="translate(153.000000, 15.500000) scale(-1, -1) translate(-153.000000, -15.500000) "></path>
            <path d="M165.529915,30.503512 C165.529915,32.4381609 160.040468,34 153.264957,34 C146.489446,34 141,32.4381789 141,30.503512 C141,28.568863 146.489446,27 153.264957,27 C160.040468,27 165.529915,28.568845 165.529915,30.503512" id="Fill-3-Copy-3" fill="#000000"></path>
        </g>
    </g>
</svg>