<?xml version="1.0" encoding="UTF-8"?>
<svg width="377px" height="104px" viewBox="0 0 377 104" version="1.1" xmlns="http://www.w3.org/2000/svg" xmlns:xlink="http://www.w3.org/1999/xlink">
    <!-- Generator: Sketch 48.2 (47327) - http://www.bohemiancoding.com/sketch -->
    <title>06. Crash L</title>
    <desc>Created with Sketch.</desc>
    <defs>
        <path d="M53.0792802,82.6357656 C-58.3634901,55.8902827 16.396349,8 177.695959,8 C345.094261,8 427.851381,55.8902827 302.312638,82.6357656 C233.65149,99.1214115 121.725907,99.1214115 53.0792802,82.6357656 Z" id="path-1"></path>
        <path d="M105.438141,44.4625887 C39.4320927,30.3212989 83.7113362,5 179.246918,5 C278.394672,5 327.410598,30.3212989 253.055694,44.4625887 C212.388624,53.1791371 146.096611,53.1791371 105.438141,44.4625887 Z" id="path-2"></path>
        <path d="M136.424213,26.1628238 C97.7415985,17.8625015 123.691295,3 179.679589,3 C237.784785,3 266.510397,17.8625015 222.934965,26.1628238 C199.10217,31.2790587 160.251968,31.2790587 136.424213,26.1628238 Z" id="path-3"></path>
    </defs>
    <g id="Ikony" stroke="none" stroke-width="1" fill="none" fill-rule="evenodd">
        <g id="06.-Crash-L" transform="translate(7.000000, 2.000000)">
            <g id="Ride-Bow">
                <use fill="#FFFFFF" fill-rule="evenodd" xlink:href="#path-1"></use>
                <path stroke="#000000" stroke-width="7" d="M52.2622411,86.0390651 C24.6592148,79.4145078 7.07583998,71.2239139 0.0455461963,61.7807551 C-7.49175657,51.656577 -2.90225951,41.0200304 11.2767001,32.306407 C38.717606,15.4427071 101.039329,4.5 177.695959,4.5 C257.45477,4.5 323.257543,15.5076329 351.636103,32.275001 C366.490023,41.0513856 370.877552,51.9081576 361.967806,62.0062972 C353.720156,71.3540293 333.930991,79.4781613 303.12977,86.0390427 C233.931559,102.653638 121.446088,102.653659 52.2622411,86.0390651 Z"></path>
            </g>
            <g id="Ride-Bow">
                <use fill="#FFFFFF" fill-rule="evenodd" xlink:href="#path-2"></use>
                <path stroke="#000000" stroke-width="5" d="M104.914254,46.9070809 C88.4879564,43.3878584 78.0285597,39.0384854 73.769816,33.9318827 C68.9240706,28.1214142 71.8841992,21.9971646 80.5619665,17.2364827 C96.8697017,8.28994871 133.80849,2.5 179.246918,2.5 C226.52134,2.5 265.520399,8.32385582 282.381132,17.2170497 C291.473045,22.0125787 294.323664,28.3094768 288.612282,34.088095 C283.641227,39.1176702 271.884026,43.4265084 253.579642,46.9070679 C212.567233,55.6976359 145.918165,55.6976478 104.914254,46.9070809 Z"></path>
            </g>
            <g id="Ride-Bow">
                <use fill="#FFFFFF" fill-rule="evenodd" xlink:href="#path-3"></use>
                <path stroke="#000000" stroke-width="4" d="M136.004481,28.1182841 C126.267293,26.0289156 120.049209,23.4392071 117.453344,20.3217058 C114.346549,16.5906046 116.24861,12.6492939 121.587201,9.71595869 C131.243085,4.41044979 152.967383,1 179.679589,1 C207.465295,1 230.393653,4.42928271 240.371709,9.70038026 C245.970685,12.6581458 247.814599,16.7375999 244.154296,20.4467442 C241.141025,23.5002227 234.17142,26.0584449 223.354746,28.1182737 C199.245279,33.2939023 160.108989,33.2939118 136.004481,28.1182841 Z"></path>
            </g>
            <path d="M209,7.50752566 C209,11.6532019 196.691781,15 181.5,15 C166.308219,15 154,11.6532405 154,7.50752566 C154,3.36184938 166.308219,0 181.5,0 C196.691781,0 209,3.36181079 209,7.50752566" id="Fill-3" stroke="#000000" stroke-width="3" fill="#FFFFFF"></path>
        </g>
    </g>
</svg>